{"title":"Amelia.2009.SWESUB.DVDRip.XviD.AC3.(5.1).-Zen_Bud","uid":5641758,"size":1467932672,"categoryP":"video","categoryS":"movies","magnet":"?xt=urn:btih:99bff83ba71a855d71419aee9d2c04458a7a0892&amp;dn=Amelia.2009.SWESUB.DVDRip.XviD.AC3.%285.1%29.-Zen_Bud&amp;tr=udp%3A%2F%2Ftracker.openbittorrent.com%3A80&amp;tr=udp%3A%2F%2Fopen.demonii.com%3A1337&amp;tr=udp%3A%2F%2Ftracker.coppersurfer.tk%3A6969&amp;tr=udp%3A%2F%2Fexodus.desync.com%3A6969","seeders":0,"leechers":1,"uploader":"Zen_Bud","files":-1,"time":1277137818,"description":"General\nComplete name                    : Amelia.avi\nFormat                           : AVI\nFile size                        : 1.37 GiB\nDuration                         : 1h 51mn\nOverall bit rate                 : 1 763 Kbps\n\n\nVideo\n\nFormat                           : MPEG-4 Visual\nCodec ID/Hint                    : XviD\nDuration                         : 1h 51mn\nBit rate                         : 1 307 Kbps\nWidth                            : 720 pixels\nHeight                           : 420 pixels\nDisplay aspect ratio             : 16:9\nStream size                      : 1.01 GiB (74%)\nWriting library                  : XviD 1.2.1 (UTC 2008-12-04)\n\nAudio\n\nFormat                           : AC-3\nDuration                         : 1h 51mn\nBit rate                         : 448 Kbps\nChannel(s)                       : 6 channels\nChannel positions                : Front: L C R, Side: L R, LFE\nSampling rate                    : 48.0 KHz\nStream size                      : 356 MiB (25%)\n\n\n","torrent":{"xt":"urn:btih:99bff83ba71a855d71419aee9d2c04458a7a0892","amp;dn":"Amelia.2009.SWESUB.DVDRip.XviD.AC3.%285.1%29.-Zen_Bud","amp;tr":["udp%3A%2F%2Ftracker.openbittorrent.com%3A80","udp%3A%2F%2Fopen.demonii.com%3A1337","udp%3A%2F%2Ftracker.coppersurfer.tk%3A6969","udp%3A%2F%2Fexodus.desync.com%3A6969"],"infoHash":"99bff83ba71a855d71419aee9d2c04458a7a0892","infoHashBuffer":{"type":"Buffer","data":[153,191,248,59,167,26,133,93,113,65,154,238,157,44,4,69,138,122,8,146]},"announce":[],"urlList":[]}}